<?xml version="1.0" encoding="UTF-8"?>
<svg id="Layer_1" data-name="Layer 1" xmlns="http://www.w3.org/2000/svg" viewBox="0 0 216 163.41">
  <defs>
    <style>
      .cls-1 {
        fill: #414143;
        stroke-width: 0px;
      }
    </style>
  </defs>
  <path class="cls-1" d="M181.77,22.73c-5.93.18-11.85.35-17.78.53-.72-2.6-3.31-10.7-11.39-16.83C144.99.65,137.05.07,134.29,0h-52.57C67.99,0,56.15,9.57,52.99,22.73h-18.77C15.32,22.73,0,38.05,0,56.94v72.25c0,18.9,15.32,34.22,34.22,34.22h147.55c18.88,0,34.23-15.35,34.23-34.22V56.94c0-18.87-15.36-34.22-34.23-34.22ZM105.62,145.06c-25.91-1.19-46.96-22.2-48.2-48.12-1.39-29.03,21.83-53.11,50.59-53.11s50.63,22.73,50.63,50.64-24.01,51.93-53.01,50.59Z"/>
</svg>