<?xml version="1.0" encoding="UTF-8"?>
<svg id="Layer_1" data-name="Layer 1" xmlns="http://www.w3.org/2000/svg" viewBox="0 0 105.6 160">
  <defs>
    <style>
      .cls-1 {
        fill: #e12729;
      }

      .cls-1, .cls-2 {
        stroke-width: 0px;
      }

      .cls-2 {
        fill: #818181;
      }
    </style>
  </defs>
  <g>
    <g>
      <path class="cls-2" d="m.33,117.5v-12.83h9.02v2.81H3.81v2.2h4.98v2.81H3.81v5.01H.33Z"/>
      <path class="cls-2" d="m10.62,117.5v-12.83h9.24v2.81h-5.76v2.2h5.29v2.81h-5.29v2.2h5.74v2.81h-9.22Z"/>
      <path class="cls-2" d="m28.51,108.68c-.03-.42-.19-.74-.47-.98-.28-.23-.7-.35-1.26-.35-.36,0-.65.04-.88.13-.23.09-.4.2-.5.35s-.16.31-.17.5c0,.15.02.29.08.42.06.12.17.23.31.33.14.1.32.19.54.27.22.08.48.15.79.21l1.05.23c.71.15,1.32.35,1.82.59s.92.54,1.24.87.56.7.71,1.12c.15.41.23.86.23,1.35,0,.84-.22,1.56-.63,2.14-.42.58-1.01,1.03-1.79,1.33-.77.3-1.7.46-2.79.46s-2.09-.16-2.91-.49c-.83-.33-1.47-.84-1.93-1.52-.46-.69-.69-1.57-.69-2.64h3.31c.02.39.12.72.29.99s.42.47.74.61c.32.14.7.21,1.14.21.37,0,.68-.05.93-.14s.44-.22.57-.38c.13-.16.2-.35.2-.56,0-.2-.07-.37-.19-.52-.12-.15-.32-.28-.6-.4s-.66-.23-1.13-.33l-1.28-.28c-1.14-.25-2.03-.66-2.68-1.24s-.98-1.37-.97-2.37c0-.81.21-1.53.65-2.14.44-.61,1.05-1.09,1.83-1.43.78-.34,1.68-.51,2.7-.51s1.93.17,2.69.52c.76.35,1.34.83,1.75,1.46.41.63.62,1.36.62,2.2h-3.33Z"/>
      <path class="cls-2" d="m32.99,107.48v-2.81h11.15v2.81h-3.86v10.02h-3.43v-10.02h-3.86Z"/>
      <path class="cls-2" d="m47.14,117.5h-3.76l4.23-12.83h4.76l4.23,12.83h-3.76l-2.81-9.29h-.1l-2.81,9.29Zm-.7-5.06h7.06v2.61h-7.06v-2.61Z"/>
    </g>
    <g>
      <path class="cls-2" d="m5.26,138.66H.33v-12.83h4.88c1.32,0,2.46.26,3.42.77s1.71,1.25,2.23,2.2c.52.96.79,2.11.79,3.44s-.26,2.48-.78,3.44c-.52.96-1.26,1.69-2.22,2.2-.96.51-2.09.77-3.39.77Zm-1.45-2.96h1.33c.63,0,1.18-.1,1.63-.31.45-.2.79-.56,1.03-1.06.24-.5.35-1.2.35-2.09s-.12-1.59-.36-2.09c-.24-.5-.59-.85-1.05-1.06-.46-.2-1.03-.31-1.69-.31h-1.23v6.91Z"/>
      <path class="cls-2" d="m13.25,138.66v-12.83h9.24v2.81h-5.76v2.2h5.29v2.81h-5.29v2.2h5.74v2.81h-9.22Z"/>
      <path class="cls-2" d="m31.14,129.85c-.03-.42-.19-.74-.47-.98-.28-.23-.7-.35-1.26-.35-.36,0-.65.04-.88.13-.23.09-.4.2-.5.35s-.16.31-.17.5c0,.15.02.29.08.42.06.12.17.23.31.33.14.1.32.19.54.27.22.08.48.15.79.21l1.05.23c.71.15,1.32.35,1.82.59s.92.54,1.24.87.56.7.71,1.12c.15.41.23.86.23,1.35,0,.84-.22,1.56-.63,2.14-.42.58-1.01,1.03-1.79,1.33-.77.3-1.7.46-2.79.46s-2.09-.16-2.91-.49c-.83-.33-1.47-.84-1.93-1.52-.46-.69-.69-1.57-.69-2.64h3.31c.02.39.12.72.29.99s.42.47.74.61c.32.14.7.21,1.14.21.37,0,.68-.05.93-.14s.44-.22.57-.38c.13-.16.2-.35.2-.56,0-.2-.07-.37-.19-.52-.12-.15-.32-.28-.6-.4s-.66-.23-1.13-.33l-1.28-.28c-1.14-.25-2.03-.66-2.68-1.24s-.98-1.37-.97-2.37c0-.81.21-1.53.65-2.14.44-.61,1.05-1.09,1.83-1.43.78-.34,1.68-.51,2.7-.51s1.93.17,2.69.52c.76.35,1.34.83,1.75,1.46.41.63.62,1.36.62,2.2h-3.33Z"/>
      <path class="cls-2" d="m39.45,125.84v12.83h-3.48v-12.83h3.48Z"/>
      <path class="cls-2" d="m49.43,130.07c-.05-.22-.14-.42-.26-.59-.12-.17-.26-.31-.44-.43-.17-.12-.37-.21-.6-.27-.23-.06-.48-.09-.75-.09-.58,0-1.08.14-1.49.42-.41.28-.72.68-.94,1.21-.22.53-.32,1.16-.32,1.9s.1,1.39.31,1.93c.2.53.51.94.91,1.23.4.28.91.43,1.51.43.53,0,.97-.08,1.32-.23.35-.15.62-.37.79-.66s.26-.62.26-1l.6.06h-2.93v-2.48h5.69v1.78c0,1.17-.25,2.17-.74,3-.49.83-1.18,1.46-2.04,1.9-.87.44-1.86.66-2.98.66-1.25,0-2.34-.27-3.29-.8-.94-.53-1.68-1.29-2.21-2.27-.53-.98-.79-2.15-.79-3.5,0-1.06.16-2,.49-2.82.32-.82.77-1.51,1.35-2.08.58-.57,1.24-.99,2-1.28.76-.29,1.57-.44,2.43-.44.76,0,1.47.11,2.12.32.65.22,1.23.52,1.73.91s.91.86,1.22,1.4c.31.54.5,1.13.56,1.77h-3.52Z"/>
      <path class="cls-2" d="m65.83,125.84v12.83h-2.91l-4.63-6.74h-.08v6.74h-3.48v-12.83h2.96l4.56,6.71h.1v-6.71h3.48Z"/>
    </g>
    <g>
      <path class="cls-1" d="m7.24,151.01c-.03-.42-.19-.74-.47-.98-.28-.23-.7-.35-1.26-.35-.36,0-.65.04-.88.13-.23.09-.4.2-.5.35s-.16.31-.17.5c0,.15.02.29.08.42.06.12.17.23.31.33.14.1.32.19.54.27.22.08.48.15.79.21l1.05.23c.71.15,1.32.35,1.82.59s.92.54,1.24.87.56.7.71,1.12c.15.41.23.86.23,1.35,0,.84-.22,1.56-.63,2.14-.42.58-1.01,1.03-1.79,1.33-.77.3-1.7.46-2.79.46s-2.09-.16-2.91-.49c-.83-.33-1.47-.84-1.93-1.52-.46-.69-.69-1.57-.69-2.64h3.31c.02.39.12.72.29.99s.42.47.74.61c.32.14.7.21,1.14.21.37,0,.68-.05.93-.14s.44-.22.57-.38c.13-.16.2-.35.2-.56,0-.2-.07-.37-.19-.52-.12-.15-.32-.28-.6-.4s-.66-.23-1.13-.33l-1.28-.28c-1.14-.25-2.03-.66-2.68-1.24s-.98-1.37-.97-2.37c0-.81.21-1.53.65-2.14.44-.61,1.05-1.09,1.83-1.43.78-.34,1.68-.51,2.7-.51s1.93.17,2.69.52c.76.35,1.34.83,1.75,1.46.41.63.62,1.36.62,2.2h-3.33Z"/>
      <path class="cls-1" d="m11.72,149.8v-2.81h11.15v2.81h-3.86v10.02h-3.43v-10.02h-3.86Z"/>
      <path class="cls-1" d="m31.76,147h3.48v8.22c0,.98-.23,1.82-.7,2.53-.47.71-1.11,1.26-1.94,1.65-.83.39-1.8.58-2.89.58s-2.07-.19-2.91-.58c-.83-.39-1.48-.94-1.94-1.65-.46-.71-.69-1.56-.69-2.53v-8.22h3.48v7.92c0,.4.09.75.26,1.06s.42.55.73.73c.31.18.66.26,1.06.26s.76-.09,1.06-.26c.31-.18.55-.42.73-.73s.26-.66.26-1.06v-7.92Z"/>
      <path class="cls-1" d="m41.83,159.82h-4.93v-12.83h4.88c1.32,0,2.46.26,3.42.77s1.71,1.25,2.23,2.2c.52.96.79,2.11.79,3.44s-.26,2.48-.78,3.44c-.52.96-1.26,1.69-2.22,2.2-.96.51-2.09.77-3.39.77Zm-1.45-2.96h1.33c.63,0,1.18-.1,1.63-.31.45-.2.79-.56,1.03-1.06.24-.5.35-1.2.35-2.09s-.12-1.59-.36-2.09c-.24-.5-.59-.85-1.05-1.06-.46-.2-1.03-.31-1.69-.31h-1.23v6.91Z"/>
      <path class="cls-1" d="m53.3,147v12.83h-3.48v-12.83h3.48Z"/>
      <path class="cls-1" d="m67.38,153.41c0,1.43-.28,2.63-.83,3.61-.56.98-1.3,1.72-2.25,2.22-.94.5-2,.75-3.16.75s-2.22-.25-3.17-.76c-.94-.51-1.69-1.25-2.24-2.23-.55-.98-.83-2.18-.83-3.6s.28-2.63.83-3.61c.55-.98,1.3-1.72,2.24-2.22.94-.5,2-.75,3.17-.75s2.21.25,3.16.75c.94.5,1.69,1.24,2.25,2.22.56.98.83,2.18.83,3.61Zm-3.58,0c0-.77-.1-1.42-.3-1.94-.2-.53-.5-.93-.9-1.2-.39-.27-.88-.41-1.46-.41s-1.06.14-1.46.41c-.39.27-.69.67-.9,1.2-.2.53-.3,1.18-.3,1.94s.1,1.42.3,1.94c.2.53.5.93.9,1.2.39.27.88.41,1.46.41s1.06-.14,1.46-.41c.39-.27.69-.67.9-1.2.2-.53.3-1.18.3-1.94Z"/>
    </g>
  </g>
  <path class="cls-1" d="m105.6,19.2V0H0v96h19.2v-38.4h9.6v38.4h76.8v-57.6h-19.2v-19.2h19.2ZM28.8,38.4h-9.6v-19.2h9.6v19.2Zm31.2,0v38.4h-12V19.2h12v19.2Zm26.4,38.4h-7.2v-19.2h7.2v19.2Z"/>
</svg>