<?xml version="1.0" encoding="UTF-8"?>
<svg id="Layer_2" data-name="Layer 2" xmlns="http://www.w3.org/2000/svg" viewBox="0 0 127.74 96.64">
  <defs>
    <style>
      .cls-1 {
        fill: #4d4d4d;
        stroke-width: 0px;
      }
    </style>
  </defs>
  <g id="Layer_1-2" data-name="Layer 1">
    <g>
      <g id="Parents_Child" data-name="Parents &amp;amp; Child">
        <circle class="cls-1" cx="56.97" cy="43.56" r="4.54"/>
        <circle class="cls-1" cx="70.58" cy="43.56" r="4.54"/>
        <path class="cls-1" d="M78.56,55.38c-.36-3.14-3.01-5.51-6.17-5.51h-3.48c-1.64,0-3.21.66-4.37,1.82.3.69.38,1.46.23,2.2-.39-.72-.86-1.4-1.39-2.02-1.17-1.27-2.82-1.99-4.55-1.99h-3.48c-3.16,0-5.82,2.37-6.17,5.51l-1.69,14.77c-.04.31.19.59.5.63.02,0,.04,0,.06,0h10.65v-3.51l-5.27-5.11c-.56-.57-.53-1.46.05-2,.55-.5,1.4-.52,1.97-.04l5.8,5.15h5.16l5.8-5.15c.61-.51,1.53-.45,2.06.14.5.55.48,1.38-.04,1.91l-5.27,5.11v3.51h10.74c.31,0,.56-.25.56-.57,0-.02,0-.04,0-.06l-1.69-14.77ZM63.77,63.41c-2.19,0-3.97-1.78-3.97-3.97s1.78-3.97,3.97-3.97,3.97,1.78,3.97,3.97c0,2.19-1.78,3.97-3.97,3.97Z"/>
      </g>
      <path id="Camera_icon" data-name="Camera icon" class="cls-1" d="M90.25,3.8C85.74.38,81.05.04,79.41,0h-31.09c-8.12,0-15.12,5.66-16.99,13.44h-11.1C9.06,13.44,0,22.5,0,33.67v42.73c0,11.17,9.06,20.23,20.23,20.23h87.26c11.16,0,20.24-9.08,20.24-20.23v-42.73c0-11.16-9.08-20.23-20.24-20.23-3.5.1-7.01.21-10.51.31-.42-1.54-1.96-6.33-6.73-9.95M62.46,85.78c-15.33-.71-27.77-13.13-28.51-28.45-.82-17.17,12.91-31.41,29.92-31.41s29.94,13.44,29.94,29.95-14.2,30.71-31.35,29.92Z"/>
    </g>
  </g>
</svg>